<mxfile host="app.diagrams.net" agent="Mozilla/5.0 (Windows NT 10.0; Win64; x64) AppleWebKit/537.36 (KHTML, like Gecko) Chrome/132.0.0.0 Safari/537.36" version="26.1.0" pages="3">
  <diagram name="Phân cấp chức năng" id="_n4B84nu8X2jc_6iNdUY">
    <mxGraphModel grid="0" page="1" gridSize="10" guides="1" tooltips="1" connect="1" arrows="1" fold="1" pageScale="1" pageWidth="827" pageHeight="1169" math="0" shadow="0">
      <root>
        <mxCell id="0" />
        <mxCell id="1" parent="0" />
        <mxCell id="e5DzJvZXWIPCXWis4og--44" value="&lt;font style=&quot;font-size: 18px;&quot;&gt;QUẢN LÝ THƯ VIỆN&lt;/font&gt;" style="rounded=0;whiteSpace=wrap;html=1;" vertex="1" parent="1">
          <mxGeometry x="730" y="250" width="350" height="60" as="geometry" />
        </mxCell>
        <mxCell id="e5DzJvZXWIPCXWis4og--45" value="Thống kê và báo cáo" style="rounded=0;whiteSpace=wrap;html=1;" vertex="1" parent="1">
          <mxGeometry x="1390" y="370" width="180" height="60" as="geometry" />
        </mxCell>
        <mxCell id="e5DzJvZXWIPCXWis4og--46" value="Quản lý vi phạm và phạt" style="rounded=0;whiteSpace=wrap;html=1;" vertex="1" parent="1">
          <mxGeometry x="1100" y="370" width="180" height="60" as="geometry" />
        </mxCell>
        <mxCell id="e5DzJvZXWIPCXWis4og--47" value="Quản lý mượn / trả" style="rounded=0;whiteSpace=wrap;html=1;" vertex="1" parent="1">
          <mxGeometry x="820" y="370" width="180" height="60" as="geometry" />
        </mxCell>
        <mxCell id="e5DzJvZXWIPCXWis4og--48" value="Quản lý bạn đọc" style="rounded=0;whiteSpace=wrap;html=1;" vertex="1" parent="1">
          <mxGeometry x="530" y="370" width="180" height="60" as="geometry" />
        </mxCell>
        <mxCell id="e5DzJvZXWIPCXWis4og--49" value="Quản lý sách" style="rounded=0;whiteSpace=wrap;html=1;" vertex="1" parent="1">
          <mxGeometry x="250" y="370" width="180" height="60" as="geometry" />
        </mxCell>
        <mxCell id="e5DzJvZXWIPCXWis4og--50" value="Phân loại sách" style="rounded=0;whiteSpace=wrap;html=1;" vertex="1" parent="1">
          <mxGeometry x="250" y="670" width="180" height="60" as="geometry" />
        </mxCell>
        <mxCell id="e5DzJvZXWIPCXWis4og--51" value="Lập phiếu nhập sách" style="rounded=0;whiteSpace=wrap;html=1;" vertex="1" parent="1">
          <mxGeometry x="250" y="570" width="180" height="60" as="geometry" />
        </mxCell>
        <mxCell id="e5DzJvZXWIPCXWis4og--52" value="Kiểm tra kho&amp;nbsp;" style="rounded=0;whiteSpace=wrap;html=1;" vertex="1" parent="1">
          <mxGeometry x="250" y="470" width="180" height="60" as="geometry" />
        </mxCell>
        <mxCell id="e5DzJvZXWIPCXWis4og--53" value="Cập nhật tình trạng sách" style="rounded=0;whiteSpace=wrap;html=1;" vertex="1" parent="1">
          <mxGeometry x="250" y="770" width="180" height="60" as="geometry" />
        </mxCell>
        <mxCell id="e5DzJvZXWIPCXWis4og--54" value="Quản lý thẻ bạn đọc" style="rounded=0;whiteSpace=wrap;html=1;" vertex="1" parent="1">
          <mxGeometry x="530" y="670" width="180" height="60" as="geometry" />
        </mxCell>
        <mxCell id="e5DzJvZXWIPCXWis4og--55" value="Đăng ký và cập nhật thông tin bạn đọc" style="rounded=0;whiteSpace=wrap;html=1;" vertex="1" parent="1">
          <mxGeometry x="530" y="570" width="180" height="60" as="geometry" />
        </mxCell>
        <mxCell id="e5DzJvZXWIPCXWis4og--56" value="Kiểm tra thông tin bạn đọc" style="rounded=0;whiteSpace=wrap;html=1;" vertex="1" parent="1">
          <mxGeometry x="530" y="470" width="180" height="60" as="geometry" />
        </mxCell>
        <mxCell id="e5DzJvZXWIPCXWis4og--57" value="Lập phiếu mượn sách" style="rounded=0;whiteSpace=wrap;html=1;" vertex="1" parent="1">
          <mxGeometry x="820" y="570" width="180" height="60" as="geometry" />
        </mxCell>
        <mxCell id="e5DzJvZXWIPCXWis4og--58" value="Kiểm tra tình trạng sách" style="rounded=0;whiteSpace=wrap;html=1;" vertex="1" parent="1">
          <mxGeometry x="820" y="470" width="180" height="60" as="geometry" />
        </mxCell>
        <mxCell id="e5DzJvZXWIPCXWis4og--59" value="Thống kê thông tin bạn đọc" style="rounded=0;whiteSpace=wrap;html=1;" vertex="1" parent="1">
          <mxGeometry x="1390" y="570" width="180" height="60" as="geometry" />
        </mxCell>
        <mxCell id="e5DzJvZXWIPCXWis4og--60" value="Thống kê chi phí nhập sách" style="rounded=0;whiteSpace=wrap;html=1;" vertex="1" parent="1">
          <mxGeometry x="1390" y="470" width="180" height="60" as="geometry" />
        </mxCell>
        <mxCell id="e5DzJvZXWIPCXWis4og--61" value="Ghi nhận vi phạm" style="whiteSpace=wrap;html=1;" vertex="1" parent="1">
          <mxGeometry x="1100" y="470" width="170" height="60" as="geometry" />
        </mxCell>
        <mxCell id="e5DzJvZXWIPCXWis4og--62" value="Tính toán và xử lý phạt" style="whiteSpace=wrap;html=1;" vertex="1" parent="1">
          <mxGeometry x="1100" y="570" width="170" height="60" as="geometry" />
        </mxCell>
        <mxCell id="e5DzJvZXWIPCXWis4og--63" value="" style="endArrow=none;html=1;rounded=0;" edge="1" parent="1">
          <mxGeometry width="50" height="50" relative="1" as="geometry">
            <mxPoint x="340" y="340" as="sourcePoint" />
            <mxPoint x="1480" y="340" as="targetPoint" />
            <Array as="points" />
          </mxGeometry>
        </mxCell>
        <mxCell id="e5DzJvZXWIPCXWis4og--64" value="" style="endArrow=none;html=1;rounded=0;" edge="1" parent="1">
          <mxGeometry width="50" height="50" relative="1" as="geometry">
            <mxPoint x="220" y="402.5" as="sourcePoint" />
            <mxPoint x="220" y="900" as="targetPoint" />
            <Array as="points" />
          </mxGeometry>
        </mxCell>
        <mxCell id="e5DzJvZXWIPCXWis4og--65" value="" style="endArrow=none;html=1;rounded=0;entryX=0;entryY=0.5;entryDx=0;entryDy=0;" edge="1" parent="1">
          <mxGeometry width="50" height="50" relative="1" as="geometry">
            <mxPoint x="220" y="400" as="sourcePoint" />
            <mxPoint x="250" y="400" as="targetPoint" />
            <Array as="points">
              <mxPoint x="220" y="400" />
            </Array>
          </mxGeometry>
        </mxCell>
        <mxCell id="e5DzJvZXWIPCXWis4og--66" value="" style="endArrow=none;html=1;rounded=0;entryX=0;entryY=0.5;entryDx=0;entryDy=0;" edge="1" parent="1" target="e5DzJvZXWIPCXWis4og--52">
          <mxGeometry width="50" height="50" relative="1" as="geometry">
            <mxPoint x="220" y="500" as="sourcePoint" />
            <mxPoint x="260" y="410" as="targetPoint" />
            <Array as="points" />
          </mxGeometry>
        </mxCell>
        <mxCell id="e5DzJvZXWIPCXWis4og--67" value="" style="endArrow=none;html=1;rounded=0;" edge="1" parent="1">
          <mxGeometry width="50" height="50" relative="1" as="geometry">
            <mxPoint x="250" y="600" as="sourcePoint" />
            <mxPoint x="220" y="600" as="targetPoint" />
            <Array as="points">
              <mxPoint x="220" y="599.5" />
            </Array>
          </mxGeometry>
        </mxCell>
        <mxCell id="e5DzJvZXWIPCXWis4og--68" value="" style="endArrow=none;html=1;rounded=0;exitX=0;exitY=0.5;exitDx=0;exitDy=0;" edge="1" parent="1" source="e5DzJvZXWIPCXWis4og--50">
          <mxGeometry width="50" height="50" relative="1" as="geometry">
            <mxPoint x="740" y="600" as="sourcePoint" />
            <mxPoint x="250" y="700" as="targetPoint" />
            <Array as="points">
              <mxPoint x="220" y="700" />
            </Array>
          </mxGeometry>
        </mxCell>
        <mxCell id="e5DzJvZXWIPCXWis4og--69" value="" style="endArrow=none;html=1;rounded=0;entryX=0;entryY=0.5;entryDx=0;entryDy=0;exitX=0;exitY=0.5;exitDx=0;exitDy=0;" edge="1" parent="1" source="e5DzJvZXWIPCXWis4og--53" target="e5DzJvZXWIPCXWis4og--53">
          <mxGeometry width="50" height="50" relative="1" as="geometry">
            <mxPoint x="260" y="610" as="sourcePoint" />
            <mxPoint x="260" y="610" as="targetPoint" />
            <Array as="points">
              <mxPoint x="220" y="800" />
            </Array>
          </mxGeometry>
        </mxCell>
        <mxCell id="e5DzJvZXWIPCXWis4og--77" value="" style="endArrow=none;html=1;rounded=0;entryX=0.514;entryY=1;entryDx=0;entryDy=0;entryPerimeter=0;" edge="1" parent="1" target="e5DzJvZXWIPCXWis4og--44">
          <mxGeometry width="50" height="50" relative="1" as="geometry">
            <mxPoint x="910" y="370" as="sourcePoint" />
            <mxPoint x="935" y="320" as="targetPoint" />
            <Array as="points" />
          </mxGeometry>
        </mxCell>
        <mxCell id="e5DzJvZXWIPCXWis4og--84" value="Xử lý sách quá hạn, hư hỏng" style="rounded=0;whiteSpace=wrap;html=1;" vertex="1" parent="1">
          <mxGeometry x="250" y="870" width="180" height="60" as="geometry" />
        </mxCell>
        <mxCell id="e5DzJvZXWIPCXWis4og--85" value="" style="endArrow=none;html=1;rounded=0;entryX=0;entryY=0.5;entryDx=0;entryDy=0;" edge="1" parent="1" target="e5DzJvZXWIPCXWis4og--84">
          <mxGeometry width="50" height="50" relative="1" as="geometry">
            <mxPoint x="220" y="900" as="sourcePoint" />
            <mxPoint x="260" y="810" as="targetPoint" />
            <Array as="points">
              <mxPoint x="220" y="900" />
              <mxPoint x="240" y="900" />
            </Array>
          </mxGeometry>
        </mxCell>
        <mxCell id="e5DzJvZXWIPCXWis4og--86" value="Quản lý và theo dõi vi phạm" style="whiteSpace=wrap;html=1;" vertex="1" parent="1">
          <mxGeometry x="1100" y="670" width="170" height="60" as="geometry" />
        </mxCell>
        <mxCell id="a_NGk-5f53Yjyfvm1Tsn-2" value="Kiểm tra và xử lý sách" style="rounded=0;whiteSpace=wrap;html=1;" vertex="1" parent="1">
          <mxGeometry x="820" y="670" width="180" height="60" as="geometry" />
        </mxCell>
        <mxCell id="a_NGk-5f53Yjyfvm1Tsn-3" value="Xác nhận hoàn tất mượn trả" style="rounded=0;whiteSpace=wrap;html=1;" vertex="1" parent="1">
          <mxGeometry x="820" y="770" width="180" height="60" as="geometry" />
        </mxCell>
        <mxCell id="a_NGk-5f53Yjyfvm1Tsn-4" value="Thống kê vi phạm và phạt" style="rounded=0;whiteSpace=wrap;html=1;" vertex="1" parent="1">
          <mxGeometry x="1390" y="670" width="180" height="60" as="geometry" />
        </mxCell>
        <mxCell id="a_NGk-5f53Yjyfvm1Tsn-5" value="Thống kê hoạt động mượn&amp;nbsp;&lt;div&gt;và trả sách&lt;/div&gt;" style="rounded=0;whiteSpace=wrap;html=1;" vertex="1" parent="1">
          <mxGeometry x="1390" y="770" width="180" height="60" as="geometry" />
        </mxCell>
        <mxCell id="a_NGk-5f53Yjyfvm1Tsn-6" value="Báo cáo tổng hợp" style="rounded=0;whiteSpace=wrap;html=1;" vertex="1" parent="1">
          <mxGeometry x="1390" y="870" width="180" height="60" as="geometry" />
        </mxCell>
        <mxCell id="gLcyVrvfrJAAX0wr8fs8-5" value="" style="endArrow=none;html=1;rounded=0;entryX=0;entryY=0.5;entryDx=0;entryDy=0;" edge="1" parent="1" target="e5DzJvZXWIPCXWis4og--48">
          <mxGeometry width="50" height="50" relative="1" as="geometry">
            <mxPoint x="480" y="500" as="sourcePoint" />
            <mxPoint x="910" y="610" as="targetPoint" />
            <Array as="points">
              <mxPoint x="480" y="400" />
            </Array>
          </mxGeometry>
        </mxCell>
        <mxCell id="gLcyVrvfrJAAX0wr8fs8-7" value="" style="endArrow=none;html=1;rounded=0;entryX=0;entryY=0.5;entryDx=0;entryDy=0;" edge="1" parent="1" target="e5DzJvZXWIPCXWis4og--56">
          <mxGeometry width="50" height="50" relative="1" as="geometry">
            <mxPoint x="480" y="600" as="sourcePoint" />
            <mxPoint x="910" y="610" as="targetPoint" />
            <Array as="points">
              <mxPoint x="480" y="500" />
            </Array>
          </mxGeometry>
        </mxCell>
        <mxCell id="gLcyVrvfrJAAX0wr8fs8-8" value="" style="endArrow=none;html=1;rounded=0;exitX=0;exitY=0.5;exitDx=0;exitDy=0;" edge="1" parent="1" source="e5DzJvZXWIPCXWis4og--55">
          <mxGeometry width="50" height="50" relative="1" as="geometry">
            <mxPoint x="860" y="660" as="sourcePoint" />
            <mxPoint x="480" y="700" as="targetPoint" />
            <Array as="points">
              <mxPoint x="480" y="600" />
            </Array>
          </mxGeometry>
        </mxCell>
        <mxCell id="gLcyVrvfrJAAX0wr8fs8-9" value="" style="endArrow=none;html=1;rounded=0;entryX=0;entryY=0.5;entryDx=0;entryDy=0;" edge="1" parent="1" target="e5DzJvZXWIPCXWis4og--54">
          <mxGeometry width="50" height="50" relative="1" as="geometry">
            <mxPoint x="480" y="700" as="sourcePoint" />
            <mxPoint x="910" y="610" as="targetPoint" />
          </mxGeometry>
        </mxCell>
        <mxCell id="gLcyVrvfrJAAX0wr8fs8-11" value="" style="endArrow=none;html=1;rounded=0;exitX=0.5;exitY=0;exitDx=0;exitDy=0;" edge="1" parent="1" source="e5DzJvZXWIPCXWis4og--49">
          <mxGeometry width="50" height="50" relative="1" as="geometry">
            <mxPoint x="860" y="660" as="sourcePoint" />
            <mxPoint x="340" y="340" as="targetPoint" />
          </mxGeometry>
        </mxCell>
        <mxCell id="gLcyVrvfrJAAX0wr8fs8-12" value="" style="endArrow=none;html=1;rounded=0;" edge="1" parent="1">
          <mxGeometry width="50" height="50" relative="1" as="geometry">
            <mxPoint x="612" y="340" as="sourcePoint" />
            <mxPoint x="612" y="370" as="targetPoint" />
          </mxGeometry>
        </mxCell>
        <mxCell id="gLcyVrvfrJAAX0wr8fs8-13" value="" style="endArrow=none;html=1;rounded=0;entryX=0.5;entryY=0;entryDx=0;entryDy=0;" edge="1" parent="1" target="e5DzJvZXWIPCXWis4og--46">
          <mxGeometry width="50" height="50" relative="1" as="geometry">
            <mxPoint x="1190" y="340" as="sourcePoint" />
            <mxPoint x="910" y="610" as="targetPoint" />
          </mxGeometry>
        </mxCell>
        <mxCell id="gLcyVrvfrJAAX0wr8fs8-14" value="" style="endArrow=none;html=1;rounded=0;entryX=0.5;entryY=0;entryDx=0;entryDy=0;" edge="1" parent="1" target="e5DzJvZXWIPCXWis4og--45">
          <mxGeometry width="50" height="50" relative="1" as="geometry">
            <mxPoint x="1480" y="340" as="sourcePoint" />
            <mxPoint x="910" y="610" as="targetPoint" />
          </mxGeometry>
        </mxCell>
        <mxCell id="gLcyVrvfrJAAX0wr8fs8-16" value="" style="endArrow=none;html=1;rounded=0;entryX=0;entryY=0.5;entryDx=0;entryDy=0;" edge="1" parent="1" target="e5DzJvZXWIPCXWis4og--47">
          <mxGeometry width="50" height="50" relative="1" as="geometry">
            <mxPoint x="770" y="500" as="sourcePoint" />
            <mxPoint x="910" y="610" as="targetPoint" />
            <Array as="points">
              <mxPoint x="770" y="400" />
            </Array>
          </mxGeometry>
        </mxCell>
        <mxCell id="gLcyVrvfrJAAX0wr8fs8-17" value="" style="endArrow=none;html=1;rounded=0;entryX=0;entryY=0.5;entryDx=0;entryDy=0;" edge="1" parent="1" target="e5DzJvZXWIPCXWis4og--58">
          <mxGeometry width="50" height="50" relative="1" as="geometry">
            <mxPoint x="770" y="600" as="sourcePoint" />
            <mxPoint x="770" y="500" as="targetPoint" />
            <Array as="points">
              <mxPoint x="770" y="500" />
            </Array>
          </mxGeometry>
        </mxCell>
        <mxCell id="gLcyVrvfrJAAX0wr8fs8-18" value="" style="endArrow=none;html=1;rounded=0;entryX=0;entryY=0.5;entryDx=0;entryDy=0;" edge="1" parent="1" target="e5DzJvZXWIPCXWis4og--57">
          <mxGeometry width="50" height="50" relative="1" as="geometry">
            <mxPoint x="770" y="700" as="sourcePoint" />
            <mxPoint x="910" y="610" as="targetPoint" />
            <Array as="points">
              <mxPoint x="770" y="600" />
            </Array>
          </mxGeometry>
        </mxCell>
        <mxCell id="gLcyVrvfrJAAX0wr8fs8-19" value="" style="endArrow=none;html=1;rounded=0;entryX=0;entryY=0.5;entryDx=0;entryDy=0;" edge="1" parent="1" target="a_NGk-5f53Yjyfvm1Tsn-2">
          <mxGeometry width="50" height="50" relative="1" as="geometry">
            <mxPoint x="770" y="800" as="sourcePoint" />
            <mxPoint x="910" y="610" as="targetPoint" />
            <Array as="points">
              <mxPoint x="770" y="700" />
            </Array>
          </mxGeometry>
        </mxCell>
        <mxCell id="gLcyVrvfrJAAX0wr8fs8-20" value="" style="endArrow=none;html=1;rounded=0;exitX=0;exitY=0.5;exitDx=0;exitDy=0;" edge="1" parent="1" source="a_NGk-5f53Yjyfvm1Tsn-3">
          <mxGeometry width="50" height="50" relative="1" as="geometry">
            <mxPoint x="770" y="790" as="sourcePoint" />
            <mxPoint x="770" y="800" as="targetPoint" />
          </mxGeometry>
        </mxCell>
        <mxCell id="gLcyVrvfrJAAX0wr8fs8-22" value="" style="endArrow=none;html=1;rounded=0;entryX=0;entryY=0.5;entryDx=0;entryDy=0;" edge="1" parent="1">
          <mxGeometry width="50" height="50" relative="1" as="geometry">
            <mxPoint x="1050" y="500" as="sourcePoint" />
            <mxPoint x="1100" y="400" as="targetPoint" />
            <Array as="points">
              <mxPoint x="1050" y="400" />
            </Array>
          </mxGeometry>
        </mxCell>
        <mxCell id="gLcyVrvfrJAAX0wr8fs8-23" value="" style="endArrow=none;html=1;rounded=0;entryX=0;entryY=0.5;entryDx=0;entryDy=0;" edge="1" parent="1">
          <mxGeometry width="50" height="50" relative="1" as="geometry">
            <mxPoint x="1050" y="600" as="sourcePoint" />
            <mxPoint x="1100" y="500" as="targetPoint" />
            <Array as="points">
              <mxPoint x="1050" y="500" />
            </Array>
          </mxGeometry>
        </mxCell>
        <mxCell id="gLcyVrvfrJAAX0wr8fs8-24" value="" style="endArrow=none;html=1;rounded=0;exitX=0;exitY=0.5;exitDx=0;exitDy=0;" edge="1" parent="1">
          <mxGeometry width="50" height="50" relative="1" as="geometry">
            <mxPoint x="1100" y="600" as="sourcePoint" />
            <mxPoint x="1050" y="700" as="targetPoint" />
            <Array as="points">
              <mxPoint x="1050" y="600" />
            </Array>
          </mxGeometry>
        </mxCell>
        <mxCell id="gLcyVrvfrJAAX0wr8fs8-25" value="" style="endArrow=none;html=1;rounded=0;entryX=0;entryY=0.5;entryDx=0;entryDy=0;" edge="1" parent="1">
          <mxGeometry width="50" height="50" relative="1" as="geometry">
            <mxPoint x="1050" y="699.33" as="sourcePoint" />
            <mxPoint x="1100" y="699.33" as="targetPoint" />
          </mxGeometry>
        </mxCell>
        <mxCell id="gLcyVrvfrJAAX0wr8fs8-27" value="" style="endArrow=none;html=1;rounded=0;entryX=0;entryY=0.5;entryDx=0;entryDy=0;" edge="1" parent="1">
          <mxGeometry width="50" height="50" relative="1" as="geometry">
            <mxPoint x="1340" y="500" as="sourcePoint" />
            <mxPoint x="1390" y="400" as="targetPoint" />
            <Array as="points">
              <mxPoint x="1340" y="400" />
            </Array>
          </mxGeometry>
        </mxCell>
        <mxCell id="gLcyVrvfrJAAX0wr8fs8-28" value="" style="endArrow=none;html=1;rounded=0;entryX=0;entryY=0.5;entryDx=0;entryDy=0;" edge="1" parent="1">
          <mxGeometry width="50" height="50" relative="1" as="geometry">
            <mxPoint x="1340" y="600" as="sourcePoint" />
            <mxPoint x="1390" y="500" as="targetPoint" />
            <Array as="points">
              <mxPoint x="1340" y="500" />
            </Array>
          </mxGeometry>
        </mxCell>
        <mxCell id="gLcyVrvfrJAAX0wr8fs8-29" value="" style="endArrow=none;html=1;rounded=0;entryX=0;entryY=0.5;entryDx=0;entryDy=0;" edge="1" parent="1">
          <mxGeometry width="50" height="50" relative="1" as="geometry">
            <mxPoint x="1340" y="700" as="sourcePoint" />
            <mxPoint x="1390" y="600" as="targetPoint" />
            <Array as="points">
              <mxPoint x="1340" y="600" />
            </Array>
          </mxGeometry>
        </mxCell>
        <mxCell id="gLcyVrvfrJAAX0wr8fs8-30" value="" style="endArrow=none;html=1;rounded=0;entryX=0;entryY=0.5;entryDx=0;entryDy=0;" edge="1" parent="1">
          <mxGeometry width="50" height="50" relative="1" as="geometry">
            <mxPoint x="1340" y="800" as="sourcePoint" />
            <mxPoint x="1390" y="700" as="targetPoint" />
            <Array as="points">
              <mxPoint x="1340" y="700" />
            </Array>
          </mxGeometry>
        </mxCell>
        <mxCell id="gLcyVrvfrJAAX0wr8fs8-31" value="" style="endArrow=none;html=1;rounded=0;entryX=0;entryY=0.5;entryDx=0;entryDy=0;" edge="1" parent="1">
          <mxGeometry width="50" height="50" relative="1" as="geometry">
            <mxPoint x="1340" y="900" as="sourcePoint" />
            <mxPoint x="1390" y="800" as="targetPoint" />
            <Array as="points">
              <mxPoint x="1340" y="800" />
            </Array>
          </mxGeometry>
        </mxCell>
        <mxCell id="gLcyVrvfrJAAX0wr8fs8-32" value="" style="endArrow=none;html=1;rounded=0;entryX=0;entryY=0.5;entryDx=0;entryDy=0;" edge="1" parent="1">
          <mxGeometry width="50" height="50" relative="1" as="geometry">
            <mxPoint x="1340" y="899.33" as="sourcePoint" />
            <mxPoint x="1390" y="899.33" as="targetPoint" />
          </mxGeometry>
        </mxCell>
      </root>
    </mxGraphModel>
  </diagram>
  <diagram id="UzugZuTI9vcx36ahF7vp" name="Luồng DL mức ngữ cảnh">
    <mxGraphModel grid="0" page="0" gridSize="10" guides="1" tooltips="1" connect="1" arrows="1" fold="1" pageScale="1" pageWidth="827" pageHeight="1169" math="0" shadow="0">
      <root>
        <mxCell id="0" />
        <mxCell id="1" parent="0" />
        <mxCell id="zxENbvOTIosoogbQQqjV-1" value="&lt;span style=&quot;color: rgba(0, 0, 0, 0); font-family: monospace; font-size: 0px; text-align: start;&quot;&gt;%3CmxGraphModel%3E%3Croot%3E%3CmxCell%20id%3D%220%22%2F%3E%3CmxCell%20id%3D%221%22%20parent%3D%220%22%2F%3E%3CmxCell%20id%3D%222%22%20value%3D%22%22%20style%3D%22endArrow%3Dclassic%3Bhtml%3D1%3Brounded%3D0%3BentryX%3D0.806%3BentryY%3D0.073%3BentryDx%3D0%3BentryDy%3D0%3BentryPerimeter%3D0%3B%22%20edge%3D%221%22%20target%3D%224%22%20parent%3D%221%22%3E%3CmxGeometry%20width%3D%2250%22%20height%3D%2250%22%20relative%3D%221%22%20as%3D%22geometry%22%3E%3CmxPoint%20x%3D%22940%22%20y%3D%22911%22%20as%3D%22sourcePoint%22%2F%3E%3CmxPoint%20x%3D%22630%22%20y%3D%22900%22%20as%3D%22targetPoint%22%2F%3E%3CArray%20as%3D%22points%22%3E%3CmxPoint%20x%3D%22940%22%20y%3D%22850%22%2F%3E%3CmxPoint%20x%3D%22660%22%20y%3D%22850%22%2F%3E%3C%2FArray%3E%3C%2FmxGeometry%3E%3C%2FmxCell%3E%3CmxCell%20id%3D%223%22%20value%3D%22S%C6%A1%20%C4%91%E1%BB%93%20lu%E1%BB%93ng%20d%E1%BB%AF%20li%E1%BB%87u%20m%E1%BB%A9c%20ng%E1%BB%AF%20c%E1%BA%A3nh%26amp%3Bnbsp%3B%22%20style%3D%22text%3Bhtml%3D1%3Balign%3Dcenter%3BverticalAlign%3Dmiddle%3Bresizable%3D0%3Bpoints%3D%5B%5D%3Bautosize%3D1%3BstrokeColor%3Dnone%3BfillColor%3Dnone%3B%22%20vertex%3D%221%22%20parent%3D%221%22%3E%3CmxGeometry%20x%3D%225%22%20y%3D%22780%22%20width%3D%22210%22%20height%3D%2230%22%20as%3D%22geometry%22%2F%3E%3C%2FmxCell%3E%3CmxCell%20id%3D%224%22%20value%3D%22H%E1%BB%86%20TH%E1%BB%90NG%20QU%E1%BA%A2N%20L%C3%9D%20TH%C6%AF%20VI%E1%BB%86N%22%20style%3D%22ellipse%3BwhiteSpace%3Dwrap%3Bhtml%3D1%3B%22%20vertex%3D%221%22%20parent%3D%221%22%3E%3CmxGeometry%20x%3D%22450%22%20y%3D%22890%22%20width%3D%22260%22%20height%3D%22110%22%20as%3D%22geometry%22%2F%3E%3C%2FmxCell%3E%3CmxCell%20id%3D%225%22%20value%3D%22B%E1%BA%A0N%20%C4%90%E1%BB%8CC%22%20style%3D%22rounded%3D0%3BwhiteSpace%3Dwrap%3Bhtml%3D1%3B%22%20vertex%3D%221%22%20parent%3D%221%22%3E%3CmxGeometry%20x%3D%22150%22%20y%3D%22915%22%20width%3D%22170%22%20height%3D%2260%22%20as%3D%22geometry%22%2F%3E%3C%2FmxCell%3E%3CmxCell%20id%3D%226%22%20value%3D%22NH%C3%80%20CUNG%20C%E1%BA%A4P%22%20style%3D%22rounded%3D0%3BwhiteSpace%3Dwrap%3Bhtml%3D1%3B%22%20vertex%3D%221%22%20parent%3D%221%22%3E%3CmxGeometry%20x%3D%22890%22%20y%3D%22910%22%20width%3D%22170%22%20height%3D%2260%22%20as%3D%22geometry%22%2F%3E%3C%2FmxCell%3E%3CmxCell%20id%3D%227%22%20value%3D%22Danh%20s%C3%A1ch%20t%C3%A0i%20li%E1%BB%87u%20b%E1%BB%95%20sung%22%20style%3D%22text%3Bhtml%3D1%3Balign%3Dcenter%3BverticalAlign%3Dmiddle%3Bresizable%3D0%3Bpoints%3D%5B%5D%3Bautosize%3D1%3BstrokeColor%3Dnone%3BfillColor%3Dnone%3B%22%20vertex%3D%221%22%20parent%3D%221%22%3E%3CmxGeometry%20x%3D%22710%22%20y%3D%22780%22%20width%3D%22160%22%20height%3D%2230%22%20as%3D%22geometry%22%2F%3E%3C%2FmxCell%3E%3CmxCell%20id%3D%228%22%20value%3D%22%22%20style%3D%22endArrow%3Dclassic%3Bhtml%3D1%3Brounded%3D0%3BexitX%3D0.541%3BexitY%3D-0.04%3BexitDx%3D0%3BexitDy%3D0%3BexitPerimeter%3D0%3B%22%20edge%3D%221%22%20source%3D%226%22%20parent%3D%221%22%3E%3CmxGeometry%20width%3D%2250%22%20height%3D%2250%22%20relative%3D%221%22%20as%3D%22geometry%22%3E%3CmxPoint%20x%3D%22980%22%20y%3D%22900%22%20as%3D%22sourcePoint%22%2F%3E%3CmxPoint%20x%3D%22620%22%20y%3D%22890%22%20as%3D%22targetPoint%22%2F%3E%3CArray%20as%3D%22points%22%3E%3CmxPoint%20x%3D%22980%22%20y%3D%22810%22%2F%3E%3CmxPoint%20x%3D%22620%22%20y%3D%22810%22%2F%3E%3C%2FArray%3E%3C%2FmxGeometry%3E%3C%2FmxCell%3E%3CmxCell%20id%3D%229%22%20value%3D%22Th%C3%B4ng%20tin%20ph%E1%BA%A3n%20h%E1%BB%93i%22%20style%3D%22text%3Bhtml%3D1%3Balign%3Dcenter%3BverticalAlign%3Dmiddle%3Bresizable%3D0%3Bpoints%3D%5B%5D%3Bautosize%3D1%3BstrokeColor%3Dnone%3BfillColor%3Dnone%3B%22%20vertex%3D%221%22%20parent%3D%221%22%3E%3CmxGeometry%20x%3D%22740%22%20y%3D%22820%22%20width%3D%22120%22%20height%3D%2230%22%20as%3D%22geometry%22%2F%3E%3C%2FmxCell%3E%3CmxCell%20id%3D%2210%22%20value%3D%22%22%20style%3D%22endArrow%3Dclassic%3Bhtml%3D1%3Brounded%3D0%3B%22%20edge%3D%221%22%20parent%3D%221%22%3E%3CmxGeometry%20width%3D%2250%22%20height%3D%2250%22%20relative%3D%221%22%20as%3D%22geometry%22%3E%3CmxPoint%20x%3D%22940%22%20y%3D%22980%22%20as%3D%22sourcePoint%22%2F%3E%3CmxPoint%20x%3D%22661%22%20y%3D%22990%22%20as%3D%22targetPoint%22%2F%3E%3CArray%20as%3D%22points%22%3E%3CmxPoint%20x%3D%22940%22%20y%3D%221040%22%2F%3E%3CmxPoint%20x%3D%22800%22%20y%3D%221040%22%2F%3E%3CmxPoint%20x%3D%22661%22%20y%3D%221040%22%2F%3E%3C%2FArray%3E%3C%2FmxGeometry%3E%3C%2FmxCell%3E%3CmxCell%20id%3D%2211%22%20value%3D%22%22%20style%3D%22endArrow%3Dclassic%3Bhtml%3D1%3Brounded%3D0%3BexitX%3D0.541%3BexitY%3D1.053%3BexitDx%3D0%3BexitDy%3D0%3BexitPerimeter%3D0%3BentryX%3D0.649%3BentryY%3D1.018%3BentryDx%3D0%3BentryDy%3D0%3BentryPerimeter%3D0%3B%22%20edge%3D%221%22%20source%3D%226%22%20target%3D%224%22%20parent%3D%221%22%3E%3CmxGeometry%20width%3D%2250%22%20height%3D%2250%22%20relative%3D%221%22%20as%3D%22geometry%22%3E%3CmxPoint%20x%3D%22992%22%20y%3D%22918%22%20as%3D%22sourcePoint%22%2F%3E%3CmxPoint%20x%3D%22630%22%20y%3D%22900%22%20as%3D%22targetPoint%22%2F%3E%3CArray%20as%3D%22points%22%3E%3CmxPoint%20x%3D%22980%22%20y%3D%221080%22%2F%3E%3CmxPoint%20x%3D%22620%22%20y%3D%221080%22%2F%3E%3C%2FArray%3E%3C%2FmxGeometry%3E%3C%2FmxCell%3E%3CmxCell%20id%3D%2212%22%20value%3D%22S%C3%A1ch%20%2B%20phi%E1%BA%BFu%20thanh%20to%C3%A1n%22%20style%3D%22text%3Bhtml%3D1%3Balign%3Dcenter%3BverticalAlign%3Dmiddle%3Bresizable%3D0%3Bpoints%3D%5B%5D%3Bautosize%3D1%3BstrokeColor%3Dnone%3BfillColor%3Dnone%3B%22%20vertex%3D%221%22%20parent%3D%221%22%3E%3CmxGeometry%20x%3D%22725%22%20y%3D%221010%22%20width%3D%22150%22%20height%3D%2230%22%20as%3D%22geometry%22%2F%3E%3C%2FmxCell%3E%3CmxCell%20id%3D%2213%22%20value%3D%22Ti%E1%BB%81n%20%2B%20h%C3%B3a%20%C4%91%C6%A1n%22%20style%3D%22text%3Bhtml%3D1%3Balign%3Dcenter%3BverticalAlign%3Dmiddle%3Bresizable%3D0%3Bpoints%3D%5B%5D%3Bautosize%3D1%3BstrokeColor%3Dnone%3BfillColor%3Dnone%3B%22%20vertex%3D%221%22%20parent%3D%221%22%3E%3CmxGeometry%20x%3D%22750%22%20y%3D%221050%22%20width%3D%22100%22%20height%3D%2230%22%20as%3D%22geometry%22%2F%3E%3C%2FmxCell%3E%3C%2Froot%3E%3C%2FmxGraphModel%3E&lt;/span&gt;&lt;span style=&quot;color: rgba(0, 0, 0, 0); font-family: monospace; font-size: 0px; text-align: start;&quot;&gt;%3CmxGraphModel%3E%3Croot%3E%3CmxCell%20id%3D%220%22%2F%3E%3CmxCell%20id%3D%221%22%20parent%3D%220%22%2F%3E%3CmxCell%20id%3D%222%22%20value%3D%22%22%20style%3D%22endArrow%3Dclassic%3Bhtml%3D1%3Brounded%3D0%3BentryX%3D0.806%3BentryY%3D0.073%3BentryDx%3D0%3BentryDy%3D0%3BentryPerimeter%3D0%3B%22%20edge%3D%221%22%20target%3D%224%22%20parent%3D%221%22%3E%3CmxGeometry%20width%3D%2250%22%20height%3D%2250%22%20relative%3D%221%22%20as%3D%22geometry%22%3E%3CmxPoint%20x%3D%22940%22%20y%3D%22911%22%20as%3D%22sourcePoint%22%2F%3E%3CmxPoint%20x%3D%22630%22%20y%3D%22900%22%20as%3D%22targetPoint%22%2F%3E%3CArray%20as%3D%22points%22%3E%3CmxPoint%20x%3D%22940%22%20y%3D%22850%22%2F%3E%3CmxPoint%20x%3D%22660%22%20y%3D%22850%22%2F%3E%3C%2FArray%3E%3C%2FmxGeometry%3E%3C%2FmxCell%3E%3CmxCell%20id%3D%223%22%20value%3D%22S%C6%A1%20%C4%91%E1%BB%93%20lu%E1%BB%93ng%20d%E1%BB%AF%20li%E1%BB%87u%20m%E1%BB%A9c%20ng%E1%BB%AF%20c%E1%BA%A3nh%26amp%3Bnbsp%3B%22%20style%3D%22text%3Bhtml%3D1%3Balign%3Dcenter%3BverticalAlign%3Dmiddle%3Bresizable%3D0%3Bpoints%3D%5B%5D%3Bautosize%3D1%3BstrokeColor%3Dnone%3BfillColor%3Dnone%3B%22%20vertex%3D%221%22%20parent%3D%221%22%3E%3CmxGeometry%20x%3D%225%22%20y%3D%22780%22%20width%3D%22210%22%20height%3D%2230%22%20as%3D%22geometry%22%2F%3E%3C%2FmxCell%3E%3CmxCell%20id%3D%224%22%20value%3D%22H%E1%BB%86%20TH%E1%BB%90NG%20QU%E1%BA%A2N%20L%C3%9D%20TH%C6%AF%20VI%E1%BB%86N%22%20style%3D%22ellipse%3BwhiteSpace%3Dwrap%3Bhtml%3D1%3B%22%20vertex%3D%221%22%20parent%3D%221%22%3E%3CmxGeometry%20x%3D%22450%22%20y%3D%22890%22%20width%3D%22260%22%20height%3D%22110%22%20as%3D%22geometry%22%2F%3E%3C%2FmxCell%3E%3CmxCell%20id%3D%225%22%20value%3D%22B%E1%BA%A0N%20%C4%90%E1%BB%8CC%22%20style%3D%22rounded%3D0%3BwhiteSpace%3Dwrap%3Bhtml%3D1%3B%22%20vertex%3D%221%22%20parent%3D%221%22%3E%3CmxGeometry%20x%3D%22150%22%20y%3D%22915%22%20width%3D%22170%22%20height%3D%2260%22%20as%3D%22geometry%22%2F%3E%3C%2FmxCell%3E%3CmxCell%20id%3D%226%22%20value%3D%22NH%C3%80%20CUNG%20C%E1%BA%A4P%22%20style%3D%22rounded%3D0%3BwhiteSpace%3Dwrap%3Bhtml%3D1%3B%22%20vertex%3D%221%22%20parent%3D%221%22%3E%3CmxGeometry%20x%3D%22890%22%20y%3D%22910%22%20width%3D%22170%22%20height%3D%2260%22%20as%3D%22geometry%22%2F%3E%3C%2FmxCell%3E%3CmxCell%20id%3D%227%22%20value%3D%22Danh%20s%C3%A1ch%20t%C3%A0i%20li%E1%BB%87u%20b%E1%BB%95%20sung%22%20style%3D%22text%3Bhtml%3D1%3Balign%3Dcenter%3BverticalAlign%3Dmiddle%3Bresizable%3D0%3Bpoints%3D%5B%5D%3Bautosize%3D1%3BstrokeColor%3Dnone%3BfillColor%3Dnone%3B%22%20vertex%3D%221%22%20parent%3D%221%22%3E%3CmxGeometry%20x%3D%22710%22%20y%3D%22780%22%20width%3D%22160%22%20height%3D%2230%22%20as%3D%22geometry%22%2F%3E%3C%2FmxCell%3E%3CmxCell%20id%3D%228%22%20value%3D%22%22%20style%3D%22endArrow%3Dclassic%3Bhtml%3D1%3Brounded%3D0%3BexitX%3D0.541%3BexitY%3D-0.04%3BexitDx%3D0%3BexitDy%3D0%3BexitPerimeter%3D0%3B%22%20edge%3D%221%22%20source%3D%226%22%20parent%3D%221%22%3E%3CmxGeometry%20width%3D%2250%22%20height%3D%2250%22%20relative%3D%221%22%20as%3D%22geometry%22%3E%3CmxPoint%20x%3D%22980%22%20y%3D%22900%22%20as%3D%22sourcePoint%22%2F%3E%3CmxPoint%20x%3D%22620%22%20y%3D%22890%22%20as%3D%22targetPoint%22%2F%3E%3CArray%20as%3D%22points%22%3E%3CmxPoint%20x%3D%22980%22%20y%3D%22810%22%2F%3E%3CmxPoint%20x%3D%22620%22%20y%3D%22810%22%2F%3E%3C%2FArray%3E%3C%2FmxGeometry%3E%3C%2FmxCell%3E%3CmxCell%20id%3D%229%22%20value%3D%22Th%C3%B4ng%20tin%20ph%E1%BA%A3n%20h%E1%BB%93i%22%20style%3D%22text%3Bhtml%3D1%3Balign%3Dcenter%3BverticalAlign%3Dmiddle%3Bresizable%3D0%3Bpoints%3D%5B%5D%3Bautosize%3D1%3BstrokeColor%3Dnone%3BfillColor%3Dnone%3B%22%20vertex%3D%221%22%20parent%3D%221%22%3E%3CmxGeometry%20x%3D%22740%22%20y%3D%22820%22%20width%3D%22120%22%20height%3D%2230%22%20as%3D%22geometry%22%2F%3E%3C%2FmxCell%3E%3CmxCell%20id%3D%2210%22%20value%3D%22%22%20style%3D%22endArrow%3Dclassic%3Bhtml%3D1%3Brounded%3D0%3B%22%20edge%3D%221%22%20parent%3D%221%22%3E%3CmxGeometry%20width%3D%2250%22%20height%3D%2250%22%20relative%3D%221%22%20as%3D%22geometry%22%3E%3CmxPoint%20x%3D%22940%22%20y%3D%22980%22%20as%3D%22sourcePoint%22%2F%3E%3CmxPoint%20x%3D%22661%22%20y%3D%22990%22%20as%3D%22targetPoint%22%2F%3E%3CArray%20as%3D%22points%22%3E%3CmxPoint%20x%3D%22940%22%20y%3D%221040%22%2F%3E%3CmxPoint%20x%3D%22800%22%20y%3D%221040%22%2F%3E%3CmxPoint%20x%3D%22661%22%20y%3D%221040%22%2F%3E%3C%2FArray%3E%3C%2FmxGeometry%3E%3C%2FmxCell%3E%3CmxCell%20id%3D%2211%22%20value%3D%22%22%20style%3D%22endArrow%3Dclassic%3Bhtml%3D1%3Brounded%3D0%3BexitX%3D0.541%3BexitY%3D1.053%3BexitDx%3D0%3BexitDy%3D0%3BexitPerimeter%3D0%3BentryX%3D0.649%3BentryY%3D1.018%3BentryDx%3D0%3BentryDy%3D0%3BentryPerimeter%3D0%3B%22%20edge%3D%221%22%20source%3D%226%22%20target%3D%224%22%20parent%3D%221%22%3E%3CmxGeometry%20width%3D%2250%22%20height%3D%2250%22%20relative%3D%221%22%20as%3D%22geometry%22%3E%3CmxPoint%20x%3D%22992%22%20y%3D%22918%22%20as%3D%22sourcePoint%22%2F%3E%3CmxPoint%20x%3D%22630%22%20y%3D%22900%22%20as%3D%22targetPoint%22%2F%3E%3CArray%20as%3D%22points%22%3E%3CmxPoint%20x%3D%22980%22%20y%3D%221080%22%2F%3E%3CmxPoint%20x%3D%22620%22%20y%3D%221080%22%2F%3E%3C%2FArray%3E%3C%2FmxGeometry%3E%3C%2FmxCell%3E%3CmxCell%20id%3D%2212%22%20value%3D%22S%C3%A1ch%20%2B%20phi%E1%BA%BFu%20thanh%20to%C3%A1n%22%20style%3D%22text%3Bhtml%3D1%3Balign%3Dcenter%3BverticalAlign%3Dmiddle%3Bresizable%3D0%3Bpoints%3D%5B%5D%3Bautosize%3D1%3BstrokeColor%3Dnone%3BfillColor%3Dnone%3B%22%20vertex%3D%221%22%20parent%3D%221%22%3E%3CmxGeometry%20x%3D%22725%22%20y%3D%221010%22%20width%3D%22150%22%20height%3D%2230%22%20as%3D%22geometry%22%2F%3E%3C%2FmxCell%3E%3CmxCell%20id%3D%2213%22%20value%3D%22Ti%E1%BB%81n%20%2B%20h%C3%B3a%20%C4%91%C6%A1n%22%20style%3D%22text%3Bhtml%3D1%3Balign%3Dcenter%3BverticalAlign%3Dmiddle%3Bresizable%3D0%3Bpoints%3D%5B%5D%3Bautosize%3D1%3BstrokeColor%3Dnone%3BfillColor%3Dnone%3B%22%20vertex%3D%221%22%20parent%3D%221%22%3E%3CmxGeometry%20x%3D%22750%22%20y%3D%221050%22%20width%3D%22100%22%20height%3D%2230%22%20as%3D%22geometry%22%2F%3E%3C%2FmxCell%3E%3C%2Froot%3E%3C%2FmxGraphModel%3E&lt;/span&gt;" style="text;html=1;align=center;verticalAlign=middle;resizable=0;points=[];autosize=1;strokeColor=none;fillColor=none;" vertex="1" parent="1">
          <mxGeometry x="110" y="28" width="20" height="30" as="geometry" />
        </mxCell>
        <mxCell id="zxENbvOTIosoogbQQqjV-14" value="" style="endArrow=classic;html=1;rounded=0;entryX=0.806;entryY=0.073;entryDx=0;entryDy=0;entryPerimeter=0;" edge="1" parent="1" target="zxENbvOTIosoogbQQqjV-16">
          <mxGeometry width="50" height="50" relative="1" as="geometry">
            <mxPoint x="1195" y="481" as="sourcePoint" />
            <mxPoint x="885" y="470" as="targetPoint" />
            <Array as="points">
              <mxPoint x="1195" y="420" />
              <mxPoint x="915" y="420" />
            </Array>
          </mxGeometry>
        </mxCell>
        <mxCell id="zxENbvOTIosoogbQQqjV-16" value="HỆ THỐNG QUẢN LÝ THƯ VIỆN" style="ellipse;whiteSpace=wrap;html=1;" vertex="1" parent="1">
          <mxGeometry x="705" y="460" width="260" height="110" as="geometry" />
        </mxCell>
        <mxCell id="zxENbvOTIosoogbQQqjV-17" value="BẠN ĐỌC" style="rounded=0;whiteSpace=wrap;html=1;" vertex="1" parent="1">
          <mxGeometry x="405" y="485" width="170" height="60" as="geometry" />
        </mxCell>
        <mxCell id="zxENbvOTIosoogbQQqjV-18" value="NHÀ CUNG CẤP" style="rounded=0;whiteSpace=wrap;html=1;" vertex="1" parent="1">
          <mxGeometry x="1145" y="480" width="170" height="60" as="geometry" />
        </mxCell>
        <mxCell id="zxENbvOTIosoogbQQqjV-19" value="Danh sách tài liệu bổ sung" style="text;html=1;align=center;verticalAlign=middle;resizable=0;points=[];autosize=1;strokeColor=none;fillColor=none;" vertex="1" parent="1">
          <mxGeometry x="965" y="350" width="160" height="30" as="geometry" />
        </mxCell>
        <mxCell id="zxENbvOTIosoogbQQqjV-20" value="" style="endArrow=classic;html=1;rounded=0;exitX=0.541;exitY=-0.04;exitDx=0;exitDy=0;exitPerimeter=0;" edge="1" parent="1" source="zxENbvOTIosoogbQQqjV-18">
          <mxGeometry width="50" height="50" relative="1" as="geometry">
            <mxPoint x="1235" y="470" as="sourcePoint" />
            <mxPoint x="875" y="460" as="targetPoint" />
            <Array as="points">
              <mxPoint x="1235" y="380" />
              <mxPoint x="875" y="380" />
            </Array>
          </mxGeometry>
        </mxCell>
        <mxCell id="zxENbvOTIosoogbQQqjV-21" value="Thông tin phản hồi" style="text;html=1;align=center;verticalAlign=middle;resizable=0;points=[];autosize=1;strokeColor=none;fillColor=none;" vertex="1" parent="1">
          <mxGeometry x="995" y="390" width="120" height="30" as="geometry" />
        </mxCell>
        <mxCell id="zxENbvOTIosoogbQQqjV-22" value="" style="endArrow=classic;html=1;rounded=0;" edge="1" parent="1">
          <mxGeometry width="50" height="50" relative="1" as="geometry">
            <mxPoint x="1195" y="550" as="sourcePoint" />
            <mxPoint x="916" y="560" as="targetPoint" />
            <Array as="points">
              <mxPoint x="1195" y="610" />
              <mxPoint x="1055" y="610" />
              <mxPoint x="916" y="610" />
            </Array>
          </mxGeometry>
        </mxCell>
        <mxCell id="zxENbvOTIosoogbQQqjV-23" value="" style="endArrow=classic;html=1;rounded=0;exitX=0.541;exitY=1.053;exitDx=0;exitDy=0;exitPerimeter=0;entryX=0.649;entryY=1.018;entryDx=0;entryDy=0;entryPerimeter=0;" edge="1" parent="1" source="zxENbvOTIosoogbQQqjV-18" target="zxENbvOTIosoogbQQqjV-16">
          <mxGeometry width="50" height="50" relative="1" as="geometry">
            <mxPoint x="1247" y="488" as="sourcePoint" />
            <mxPoint x="885" y="470" as="targetPoint" />
            <Array as="points">
              <mxPoint x="1235" y="650" />
              <mxPoint x="875" y="650" />
            </Array>
          </mxGeometry>
        </mxCell>
        <mxCell id="zxENbvOTIosoogbQQqjV-24" value="Sách + phiếu thanh toán" style="text;html=1;align=center;verticalAlign=middle;resizable=0;points=[];autosize=1;strokeColor=none;fillColor=none;" vertex="1" parent="1">
          <mxGeometry x="980" y="580" width="150" height="30" as="geometry" />
        </mxCell>
        <mxCell id="zxENbvOTIosoogbQQqjV-25" value="Tiền + hóa đơn" style="text;html=1;align=center;verticalAlign=middle;resizable=0;points=[];autosize=1;strokeColor=none;fillColor=none;" vertex="1" parent="1">
          <mxGeometry x="1005" y="620" width="100" height="30" as="geometry" />
        </mxCell>
      </root>
    </mxGraphModel>
  </diagram>
  <diagram id="gehf_b2xJujB_lnGTqoU" name="Trang-3">
    <mxGraphModel grid="0" page="0" gridSize="10" guides="1" tooltips="1" connect="1" arrows="1" fold="1" pageScale="1" pageWidth="827" pageHeight="1169" math="0" shadow="0">
      <root>
        <mxCell id="0" />
        <mxCell id="1" parent="0" />
      </root>
    </mxGraphModel>
  </diagram>
</mxfile>
